<svg xmlns="http://www.w3.org/2000/svg" viewBox="0 0 32 32" fill="none">
  <rect width="32" height="32" rx="6" fill="url(#gradient)"/>
  <path d="M16 4 L8 9 L8 18 C8 22 12 26 16 28 C20 26 24 22 24 18 L24 9 Z" fill="white" opacity="0.9"/>
  <path d="M16 8 L16 10 M16 22 L16 24 M12 14 L14 14 C15.1 14 16 13.1 16 12 C16 10.9 15.1 10 14 10 L12 10 M20 18 L18 18 C16.9 18 16 18.9 16 20 C16 21.1 16.9 22 18 22 L20 22 M16 14 L16 18" stroke="url(#gradient)" stroke-width="2" stroke-linecap="round" stroke-linejoin="round"/>
  <defs>
    <linearGradient id="gradient" x1="0%" y1="0%" x2="100%" y2="100%">
      <stop offset="0%" style="stop-color:#6366f1;stop-opacity:1" />
      <stop offset="100%" style="stop-color:#8b5cf6;stop-opacity:1" />
    </linearGradient>
  </defs>
</svg>