<svg width="32" height="32" viewBox="0 0 32 32" fill="none" xmlns="http://www.w3.org/2000/svg">
  <defs>
    <linearGradient id="fg1" x1="0%" y1="0%" x2="100%" y2="100%">
      <stop offset="0%" style="stop-color:#0078D4" />
      <stop offset="50%" style="stop-color:#00BCF2" />
      <stop offset="100%" style="stop-color:#00D4AA" />
    </linearGradient>
    <linearGradient id="fg2" x1="100%" y1="100%" x2="0%" y2="0%">
      <stop offset="0%" style="stop-color:#005A9E" />
      <stop offset="100%" style="stop-color:#0078D4" />
    </linearGradient>
  </defs>
  <g transform="translate(16, 16)">
    <path d="M 0 -12 A 12 12 0 1 1 0 12 A 6 6 0 1 0 0 0 A 3 3 0 1 1 0 -6 A 9 9 0 1 0 0 -12 Z" fill="url(#fg1)"/>
    <path d="M 0 -8 A 8 8 0 1 1 0 8 A 4 4 0 1 0 0 0 A 2 2 0 1 1 0 -4 A 6 6 0 1 0 0 -8 Z" fill="url(#fg2)" opacity="0.8"/>
    <circle cx="0" cy="0" r="1.5" fill="white"/>
  </g>
</svg>