<svg width="256" height="256" viewBox="0 0 256 256" fill="none" xmlns="http://www.w3.org/2000/svg">
  <defs>
    <!-- Main gradient from blue to green -->
    <linearGradient id="mainGradient" x1="0%" y1="0%" x2="100%" y2="100%">
      <stop offset="0%" style="stop-color:#0078D4" />
      <stop offset="25%" style="stop-color:#00A4EF" />
      <stop offset="50%" style="stop-color:#00BCF2" />
      <stop offset="75%" style="stop-color:#00D4AA" />
      <stop offset="100%" style="stop-color:#70F3C0" />
    </linearGradient>
    
    <!-- Dark blue gradient for inner swirl -->
    <linearGradient id="innerGradient" x1="100%" y1="100%" x2="0%" y2="0%">
      <stop offset="0%" style="stop-color:#005A9E" />
      <stop offset="50%" style="stop-color:#0078D4" />
      <stop offset="100%" style="stop-color:#40A9FF" />
    </linearGradient>
    
    <!-- Shadow gradient -->
    <radialGradient id="shadowGradient">
      <stop offset="0%" style="stop-color:#000000;stop-opacity:0.3" />
      <stop offset="100%" style="stop-color:#000000;stop-opacity:0" />
    </radialGradient>
  </defs>
  
  <!-- Drop shadow -->
  <ellipse cx="130" cy="130" rx="100" ry="100" fill="url(#shadowGradient)" opacity="0.2" transform="translate(3, 3)"/>
  
  <!-- Main swirl container -->
  <g transform="translate(128, 128)">
    <!-- Outer C-shaped swirl -->
    <path d="M 0 -80
             A 80 80 0 1 1 0 80
             A 40 40 0 1 0 0 0
             A 20 20 0 1 1 0 -40
             A 60 60 0 1 0 0 -80
             Z"
          fill="url(#mainGradient)"/>
    
    <!-- Inner C-shaped swirl (overlapping) -->
    <path d="M 0 -50
             A 50 50 0 1 1 0 50
             A 25 25 0 1 0 0 0
             A 12.5 12.5 0 1 1 0 -25
             A 37.5 37.5 0 1 0 0 -50
             Z"
          fill="url(#innerGradient)"
          opacity="0.9"/>
    
    <!-- Center white circle -->
    <circle cx="0" cy="0" r="8" fill="white"/>
  </g>
</svg>