<svg xmlns="http://www.w3.org/2000/svg" xmlns:xlink="http://www.w3.org/1999/xlink" width="500" zoomAndPan="magnify" viewBox="0 0 375 374.999991" height="500" preserveAspectRatio="xMidYMid meet" version="1.2"><g id="2b158ff9c8"><rect x="0" width="375" y="0" height="374.999991" style="fill:#ffffff;fill-opacity:1;stroke:none;"/><rect x="0" width="375" y="0" height="374.999991" style="fill:#ffffff;fill-opacity:1;stroke:none;"/><path style=" stroke:none;fill-rule:nonzero;fill:#7c3aed;fill-opacity:1;" d="M 188.046875 375.109375 L 187.609375 374.925781 L 187.171875 375.109375 L 181.847656 372.8125 C 139.164062 354.5 104.730469 326.59375 79.488281 289.859375 C 59.496094 260.710938 45.304688 226.058594 37.316406 186.878906 C 23.855469 120.816406 32.722656 65.042969 33.121094 62.707031 L 35.273438 49.648438 L 48.371094 51.542969 C 48.40625 51.542969 55.046875 52.457031 65.589844 52.457031 C 91.707031 52.457031 141.027344 46.875 177.613281 9.484375 C 177.871094 9.230469 178.089844 9.011719 178.34375 8.753906 L 187.644531 0 L 196.949219 8.792969 C 197.203125 9.011719 197.457031 9.265625 197.675781 9.519531 C 234.265625 46.910156 283.585938 52.492188 309.703125 52.492188 C 320.246094 52.492188 326.882812 51.582031 326.957031 51.542969 L 339.980469 49.71875 L 342.132812 62.707031 C 342.535156 65.042969 351.363281 120.816406 337.9375 186.878906 C 329.949219 226.058594 315.757812 260.710938 295.730469 289.859375 C 270.523438 326.554688 236.089844 354.460938 193.371094 372.8125 Z M 187.644531 345.632812 L 188.011719 345.78125 C 253.746094 315.6875 295.257812 260.75 311.417969 182.320312 C 320.464844 138.398438 318.75 98.566406 317 79.269531 C 314.773438 79.339844 312.328125 79.414062 309.703125 79.414062 C 281.433594 79.414062 229.707031 73.648438 187.644531 37.027344 C 145.550781 73.648438 93.824219 79.378906 65.550781 79.378906 C 62.925781 79.378906 60.480469 79.339844 58.257812 79.230469 C 56.503906 98.527344 54.789062 138.363281 63.835938 182.285156 C 79.996094 260.710938 121.511719 315.648438 187.246094 345.742188 Z M 187.644531 345.632812 "/></g></svg>