<svg width="256" height="256" viewBox="0 0 256 256" fill="none" xmlns="http://www.w3.org/2000/svg">
  <!-- Shield background -->
  <path d="M 128 24 
           C 148 24 168 32 188 32 
           L 208 32 
           L 208 112 
           C 208 152 188 192 158 212
           C 148 218 138 224 128 228
           C 118 224 108 218 98 212
           C 68 192 48 152 48 112
           L 48 32
           L 68 32
           C 88 32 108 24 128 24 Z" 
        fill="#2B3544"/>
  
  <!-- Inner shield with quadrants -->
  <g>
    <!-- Shield inner area -->
    <path d="M 128 44
             C 144 44 160 50 176 50
             L 188 50
             L 188 110
             C 188 142 172 174 148 192
             C 141 197 134 201 128 204
             C 122 201 115 197 108 192
             C 84 174 68 142 68 110
             L 68 50
             L 80 50
             C 96 50 112 44 128 44 Z"
          fill="white"/>
    
    <!-- Top left quadrant - blue -->
    <path d="M 68 50 L 128 50 L 128 110 L 68 110 L 68 50 Z" 
          fill="#4A7FC7"/>
    
    <!-- Top right quadrant - white (already white from base) -->
    
    <!-- Bottom right quadrant - blue -->
    <path d="M 128 110 L 188 110 C 188 142 172 174 148 192 C 141 197 134 201 128 204 L 128 110 Z" 
          fill="#4A7FC7"/>
    
    <!-- Vertical divider -->
    <rect x="126" y="50" width="4" height="154" fill="#2B3544"/>
    
    <!-- Horizontal divider -->
    <rect x="68" y="108" width="120" height="4" fill="#2B3544"/>
  </g>
</svg>